<svg xmlns="http://www.w3.org/2000/svg" viewBox="0 0 160 160" role="img" aria-label="Odontolog Villa Luro">
  <defs>
    <linearGradient id="g" x1="0" y1="0" x2="1" y2="1">
      <stop offset="0%" stop-color="#26a9ff"/>
      <stop offset="100%" stop-color="#5a2fe6"/>
    </linearGradient>
  </defs>
  <g fill="none" stroke="url(#g)" stroke-linecap="round" stroke-linejoin="round">
    <path
      d="M49 28c-15 0-28 13-28 28 0 11 5 21 12 29 5 6 11 14 14 28 2 10 5 20 10 20 6 0 7-12 12-25 4-11 11-16 21-16s17 5 21 16c5 13 6 25 12 25 5 0 8-10 10-20 3-14 9-22 14-28 7-8 12-18 12-29 0-15-13-28-28-28-10 0-19 5-24 13-3 5-5 8-7 8s-4-3-7-8c-5-8-14-13-24-13z"
      stroke-width="9"
    />
    <path d="M80 54v28" stroke-width="8"/>
    <path d="M66 68h28" stroke-width="8"/>
    <path d="M47 84l-8 12 12 6" stroke-width="8"/>
    <path d="M113 84l8 12-12 6" stroke-width="8"/>
  </g>
</svg>
